{
  "accessors": [
    {
      "bufferView": 0,
      "componentType": 5125,
      "count": 35160,
      "type": "SCALAR"
    },
    {
      "bufferView": 1,
      "componentType": 5126,
      "count": 6049,
      "max": [
        3.78015780448914,
        1.48245775699615,
        0.390718936920166
      ],
      "min": [
        1.70256006717682,
        0.889689326286316,
        0.146923825144768
      ],
      "type": "VEC3"
    },
    {
      "bufferView": 2,
      "componentType": 5126,
      "count": 6049,
      "type": "VEC3"
    },
    {
      "bufferView": 3,
      "componentType": 5126,
      "count": 6049,
      "type": "VEC4"
    },
    {
      "bufferView": 4,
      "componentType": 5126,
      "count": 6049,
      "type": "VEC2"
    }
  ],
  "asset": {
    "generator": "Adobe Substance 3D Painter 9.1.1",
    "version": "2.0"
  },
  "bufferViews": [
    {
      "buffer": 0,
      "byteLength": 140640,
      "target": 34963
    },
    {
      "buffer": 0,
      "byteLength": 72588,
      "byteOffset": 140640,
      "target": 34962
    },
    {
      "buffer": 0,
      "byteLength": 72588,
      "byteOffset": 213228,
      "target": 34962
    },
    {
      "buffer": 0,
      "byteLength": 96784,
      "byteOffset": 285816,
      "target": 34962
    },
    {
      "buffer": 0,
      "byteLength": 48392,
      "byteOffset": 382600,
      "target": 34962
    }
  ],
  "buffers": [
    {
      "byteLength": 430992,
      "uri": "Pirata.bin"
    }
  ],
  "images": [
    {
      "uri": "Garfio0_baseColor.png"
    },
    {
      "uri": "Garfio0_occlusionRoughnessMetallic.png"
    },
    {
      "uri": "Garfio0_normal.png"
    }
  ],
  "materials": [
    {
      "alphaMode": "OPAQUE",
      "name": "Garfio0",
      "normalTexture": {
        "index": 2
      },
      "occlusionTexture": {
        "index": 1
      },
      "pbrMetallicRoughness": {
        "baseColorTexture": {
          "index": 0
        },
        "metallicRoughnessTexture": {
          "index": 1
        }
      }
    }
  ],
  "meshes": [
    {
      "name": "Garfio",
      "primitives": [
        {
          "attributes": {
            "NORMAL": 2,
            "POSITION": 1,
            "TANGENT": 3,
            "TEXCOORD_0": 4
          },
          "indices": 0,
          "material": 0,
          "mode": 4
        }
      ]
    }
  ],
  "nodes": [
    {
      "children": [
        1,
        2,
        3,
        4,
        5,
        6,
        7,
        8,
        9,
        10,
        11,
        13,
        14,
        15,
        16
      ],
      "name": "RootNode",
      "scale": [
        0.00999999977648258,
        0.00999999977648258,
        0.00999999977648258
      ]
    },
    {
      "name": "Cuerpo"
    },
    {
      "name": "Bota"
    },
    {
      "name": "Chaleco"
    },
    {
      "name": "PataPalo"
    },
    {
      "name": "Cinto"
    },
    {
      "name": "Guante"
    },
    {
      "name": "Camisa"
    },
    {
      "name": "Pantalon"
    },
    {
      "name": "Pelo"
    },
    {
      "name": "Cejas"
    },
    {
      "children": [
        12
      ],
      "name": "Garfio"
    },
    {
      "mesh": 0,
      "name": "Garfio"
    },
    {
      "name": "Sombrero1"
    },
    {
      "name": "Bigote"
    },
    {
      "name": "Barba"
    },
    {
      "name": "Ojos"
    }
  ],
  "samplers": [
    {
      "magFilter": 9729,
      "minFilter": 9985,
      "wrapS": 10497,
      "wrapT": 10497
    }
  ],
  "scene": 0,
  "scenes": [
    {
      "name": "Scene",
      "nodes": [
        0
      ]
    }
  ],
  "textures": [
    {
      "sampler": 0,
      "source": 0
    },
    {
      "sampler": 0,
      "source": 1
    },
    {
      "sampler": 0,
      "source": 2
    }
  ]
}