{
  "accessors": [
    {
      "bufferView": 0,
      "componentType": 5125,
      "count": 73956,
      "type": "SCALAR"
    },
    {
      "bufferView": 1,
      "componentType": 5126,
      "count": 13190,
      "max": [
        71.6119537353516,
        182.2236328125,
        13.750509262085
      ],
      "min": [
        -71.6100006103516,
        -0.285667419433594,
        -18.9885311126709
      ],
      "type": "VEC3"
    },
    {
      "bufferView": 2,
      "componentType": 5126,
      "count": 13190,
      "type": "VEC3"
    },
    {
      "bufferView": 3,
      "componentType": 5126,
      "count": 13190,
      "type": "VEC4"
    },
    {
      "bufferView": 4,
      "componentType": 5126,
      "count": 13190,
      "type": "VEC2"
    },
    {
      "bufferView": 5,
      "componentType": 5125,
      "count": 23316,
      "type": "SCALAR"
    },
    {
      "bufferView": 6,
      "componentType": 5126,
      "count": 4142,
      "max": [
        18.3822021484375,
        105.513221740723,
        12.3895769119263
      ],
      "min": [
        -18.3822021484375,
        81.0092926025391,
        -14.8658618927002
      ],
      "type": "VEC3"
    },
    {
      "bufferView": 7,
      "componentType": 5126,
      "count": 4142,
      "type": "VEC3"
    },
    {
      "bufferView": 8,
      "componentType": 5126,
      "count": 4142,
      "type": "VEC4"
    },
    {
      "bufferView": 9,
      "componentType": 5126,
      "count": 4142,
      "type": "VEC2"
    },
    {
      "bufferView": 10,
      "componentType": 5125,
      "count": 38400,
      "type": "SCALAR"
    },
    {
      "bufferView": 11,
      "componentType": 5126,
      "count": 6594,
      "max": [
        5.05898284912109,
        172.2236328125,
        7.09375190734863
      ],
      "min": [
        -5.05901050567627,
        168.956268310547,
        3.940016746521
      ],
      "type": "VEC3"
    },
    {
      "bufferView": 12,
      "componentType": 5126,
      "count": 6594,
      "type": "VEC3"
    },
    {
      "bufferView": 13,
      "componentType": 5126,
      "count": 6594,
      "type": "VEC4"
    },
    {
      "bufferView": 14,
      "componentType": 5126,
      "count": 6594,
      "type": "VEC2"
    },
    {
      "bufferView": 15,
      "componentType": 5125,
      "count": 6912,
      "type": "SCALAR"
    },
    {
      "bufferView": 16,
      "componentType": 5126,
      "count": 1280,
      "max": [
        4.04091739654541,
        171.196228027344,
        7.09375190734863
      ],
      "min": [
        -4.04095506668091,
        169.969955444336,
        6.92823696136475
      ],
      "type": "VEC3"
    },
    {
      "bufferView": 17,
      "componentType": 5126,
      "count": 1280,
      "type": "VEC3"
    },
    {
      "bufferView": 18,
      "componentType": 5126,
      "count": 1280,
      "type": "VEC4"
    },
    {
      "bufferView": 19,
      "componentType": 5126,
      "count": 1280,
      "type": "VEC2"
    },
    {
      "bufferView": 20,
      "componentType": 5125,
      "count": 9984,
      "type": "SCALAR"
    },
    {
      "bufferView": 21,
      "componentType": 5126,
      "count": 1988,
      "max": [
        3.72744059562683,
        170.863403320312,
        6.942307472229
      ],
      "min": [
        -3.72747468948364,
        170.273345947266,
        6.67557239532471
      ],
      "type": "VEC3"
    },
    {
      "bufferView": 22,
      "componentType": 5126,
      "count": 1988,
      "type": "VEC3"
    },
    {
      "bufferView": 23,
      "componentType": 5126,
      "count": 1988,
      "type": "VEC4"
    },
    {
      "bufferView": 24,
      "componentType": 5126,
      "count": 1988,
      "type": "VEC2"
    }
  ],
  "asset": {
    "generator": "Adobe Substance 3D Painter 9.1.1",
    "version": "2.0"
  },
  "bufferViews": [
    {
      "buffer": 0,
      "byteLength": 295824,
      "target": 34963
    },
    {
      "buffer": 0,
      "byteLength": 158280,
      "byteOffset": 295824,
      "target": 34962
    },
    {
      "buffer": 0,
      "byteLength": 158280,
      "byteOffset": 454104,
      "target": 34962
    },
    {
      "buffer": 0,
      "byteLength": 211040,
      "byteOffset": 612384,
      "target": 34962
    },
    {
      "buffer": 0,
      "byteLength": 105520,
      "byteOffset": 823424,
      "target": 34962
    },
    {
      "buffer": 0,
      "byteLength": 93264,
      "byteOffset": 928944,
      "target": 34963
    },
    {
      "buffer": 0,
      "byteLength": 49704,
      "byteOffset": 1022208,
      "target": 34962
    },
    {
      "buffer": 0,
      "byteLength": 49704,
      "byteOffset": 1071912,
      "target": 34962
    },
    {
      "buffer": 0,
      "byteLength": 66272,
      "byteOffset": 1121616,
      "target": 34962
    },
    {
      "buffer": 0,
      "byteLength": 33136,
      "byteOffset": 1187888,
      "target": 34962
    },
    {
      "buffer": 0,
      "byteLength": 153600,
      "byteOffset": 1221024,
      "target": 34963
    },
    {
      "buffer": 0,
      "byteLength": 79128,
      "byteOffset": 1374624,
      "target": 34962
    },
    {
      "buffer": 0,
      "byteLength": 79128,
      "byteOffset": 1453752,
      "target": 34962
    },
    {
      "buffer": 0,
      "byteLength": 105504,
      "byteOffset": 1532880,
      "target": 34962
    },
    {
      "buffer": 0,
      "byteLength": 52752,
      "byteOffset": 1638384,
      "target": 34962
    },
    {
      "buffer": 0,
      "byteLength": 27648,
      "byteOffset": 1691136,
      "target": 34963
    },
    {
      "buffer": 0,
      "byteLength": 15360,
      "byteOffset": 1718784,
      "target": 34962
    },
    {
      "buffer": 0,
      "byteLength": 15360,
      "byteOffset": 1734144,
      "target": 34962
    },
    {
      "buffer": 0,
      "byteLength": 20480,
      "byteOffset": 1749504,
      "target": 34962
    },
    {
      "buffer": 0,
      "byteLength": 10240,
      "byteOffset": 1769984,
      "target": 34962
    },
    {
      "buffer": 0,
      "byteLength": 39936,
      "byteOffset": 1780224,
      "target": 34963
    },
    {
      "buffer": 0,
      "byteLength": 23856,
      "byteOffset": 1820160,
      "target": 34962
    },
    {
      "buffer": 0,
      "byteLength": 23856,
      "byteOffset": 1844016,
      "target": 34962
    },
    {
      "buffer": 0,
      "byteLength": 31808,
      "byteOffset": 1867872,
      "target": 34962
    },
    {
      "buffer": 0,
      "byteLength": 15904,
      "byteOffset": 1899680,
      "target": 34962
    }
  ],
  "buffers": [
    {
      "byteLength": 1915584,
      "uri": "Musculoso.bin"
    }
  ],
  "images": [
    {
      "uri": "Cuerpo0_baseColor.png"
    },
    {
      "uri": "Cuerpo0_occlusionRoughnessMetallic.png"
    },
    {
      "uri": "Cuerpo0_normal.png"
    },
    {
      "uri": "Tanga0_baseColor.png"
    },
    {
      "uri": "Tanga0_occlusionRoughnessMetallic.png"
    },
    {
      "uri": "Tanga0_normal.png"
    },
    {
      "uri": "Tongo0_baseColor.png"
    },
    {
      "uri": "Tongo0_occlusionRoughnessMetallic.png"
    },
    {
      "uri": "Tongo0_normal.png"
    },
    {
      "uri": "Tongo1_baseColor.png"
    },
    {
      "uri": "Tongo1_occlusionRoughnessMetallic.png"
    },
    {
      "uri": "Tongo1_normal.png"
    },
    {
      "uri": "Tongo2_baseColor.png"
    },
    {
      "uri": "Tongo2_occlusionRoughnessMetallic.png"
    },
    {
      "uri": "Tongo2_normal.png"
    }
  ],
  "materials": [
    {
      "alphaMode": "OPAQUE",
      "name": "Cuerpo0",
      "normalTexture": {
        "index": 2
      },
      "occlusionTexture": {
        "index": 1
      },
      "pbrMetallicRoughness": {
        "baseColorTexture": {
          "index": 0
        },
        "metallicRoughnessTexture": {
          "index": 1
        }
      }
    },
    {
      "alphaMode": "OPAQUE",
      "name": "Tanga0",
      "normalTexture": {
        "index": 5
      },
      "occlusionTexture": {
        "index": 4
      },
      "pbrMetallicRoughness": {
        "baseColorTexture": {
          "index": 3
        },
        "metallicRoughnessTexture": {
          "index": 4
        }
      }
    },
    {
      "alphaMode": "OPAQUE",
      "name": "Tongo0",
      "normalTexture": {
        "index": 8
      },
      "occlusionTexture": {
        "index": 7
      },
      "pbrMetallicRoughness": {
        "baseColorTexture": {
          "index": 6
        },
        "metallicRoughnessTexture": {
          "index": 7
        }
      }
    },
    {
      "alphaMode": "OPAQUE",
      "name": "Tongo1",
      "normalTexture": {
        "index": 11
      },
      "occlusionTexture": {
        "index": 10
      },
      "pbrMetallicRoughness": {
        "baseColorTexture": {
          "index": 9
        },
        "metallicRoughnessTexture": {
          "index": 10
        }
      }
    },
    {
      "alphaMode": "OPAQUE",
      "name": "Tongo2",
      "normalTexture": {
        "index": 14
      },
      "occlusionTexture": {
        "index": 13
      },
      "pbrMetallicRoughness": {
        "baseColorTexture": {
          "index": 12
        },
        "metallicRoughnessTexture": {
          "index": 13
        }
      }
    }
  ],
  "meshes": [
    {
      "name": "Cuerpo",
      "primitives": [
        {
          "attributes": {
            "NORMAL": 2,
            "POSITION": 1,
            "TANGENT": 3,
            "TEXCOORD_0": 4
          },
          "indices": 0,
          "material": 0,
          "mode": 4
        }
      ]
    },
    {
      "name": "Tanga",
      "primitives": [
        {
          "attributes": {
            "NORMAL": 7,
            "POSITION": 6,
            "TANGENT": 8,
            "TEXCOORD_0": 9
          },
          "indices": 5,
          "material": 1,
          "mode": 4
        }
      ]
    },
    {
      "name": "Tongo",
      "primitives": [
        {
          "attributes": {
            "NORMAL": 12,
            "POSITION": 11,
            "TANGENT": 13,
            "TEXCOORD_0": 14
          },
          "indices": 10,
          "material": 2,
          "mode": 4
        }
      ]
    },
    {
      "name": "Tongo",
      "primitives": [
        {
          "attributes": {
            "NORMAL": 17,
            "POSITION": 16,
            "TANGENT": 18,
            "TEXCOORD_0": 19
          },
          "indices": 15,
          "material": 3,
          "mode": 4
        }
      ]
    },
    {
      "name": "Tongo",
      "primitives": [
        {
          "attributes": {
            "NORMAL": 22,
            "POSITION": 21,
            "TANGENT": 23,
            "TEXCOORD_0": 24
          },
          "indices": 20,
          "material": 4,
          "mode": 4
        }
      ]
    }
  ],
  "nodes": [
    {
      "children": [
        1,
        3,
        5
      ],
      "name": "RootNode",
      "scale": [
        0.00999999977648258,
        0.00999999977648258,
        0.00999999977648258
      ]
    },
    {
      "children": [
        2
      ],
      "name": "Cuerpo"
    },
    {
      "mesh": 0,
      "name": "Cuerpo"
    },
    {
      "children": [
        4
      ],
      "name": "Tanga"
    },
    {
      "mesh": 1,
      "name": "Tanga"
    },
    {
      "children": [
        6,
        7,
        8
      ],
      "name": "Tongo"
    },
    {
      "mesh": 2,
      "name": "Tongo"
    },
    {
      "mesh": 3,
      "name": "Tongo"
    },
    {
      "mesh": 4,
      "name": "Tongo"
    }
  ],
  "samplers": [
    {
      "magFilter": 9729,
      "minFilter": 9985,
      "wrapS": 10497,
      "wrapT": 10497
    }
  ],
  "scene": 0,
  "scenes": [
    {
      "name": "Scene",
      "nodes": [
        0
      ]
    }
  ],
  "textures": [
    {
      "sampler": 0,
      "source": 0
    },
    {
      "sampler": 0,
      "source": 1
    },
    {
      "sampler": 0,
      "source": 2
    },
    {
      "sampler": 0,
      "source": 3
    },
    {
      "sampler": 0,
      "source": 4
    },
    {
      "sampler": 0,
      "source": 5
    },
    {
      "sampler": 0,
      "source": 6
    },
    {
      "sampler": 0,
      "source": 7
    },
    {
      "sampler": 0,
      "source": 8
    },
    {
      "sampler": 0,
      "source": 9
    },
    {
      "sampler": 0,
      "source": 10
    },
    {
      "sampler": 0,
      "source": 11
    },
    {
      "sampler": 0,
      "source": 12
    },
    {
      "sampler": 0,
      "source": 13
    },
    {
      "sampler": 0,
      "source": 14
    }
  ]
}