{
  "accessors": [
    {
      "bufferView": 0,
      "componentType": 5125,
      "count": 10272,
      "type": "SCALAR"
    },
    {
      "bufferView": 1,
      "componentType": 5126,
      "count": 1811,
      "max": [
        0.703749179840088,
        1.37305974960327,
        1.59730792045593
      ],
      "min": [
        -0.703672289848328,
        -0.280155003070831,
        -1.5086236000061
      ],
      "type": "VEC3"
    },
    {
      "bufferView": 2,
      "componentType": 5126,
      "count": 1811,
      "type": "VEC3"
    },
    {
      "bufferView": 3,
      "componentType": 5126,
      "count": 1811,
      "type": "VEC4"
    },
    {
      "bufferView": 4,
      "componentType": 5126,
      "count": 1811,
      "type": "VEC2"
    }
  ],
  "asset": {
    "generator": "Adobe Substance 3D Painter 9.1.1",
    "version": "2.0"
  },
  "bufferViews": [
    {
      "buffer": 0,
      "byteLength": 41088,
      "target": 34963
    },
    {
      "buffer": 0,
      "byteLength": 21732,
      "byteOffset": 41088,
      "target": 34962
    },
    {
      "buffer": 0,
      "byteLength": 21732,
      "byteOffset": 62820,
      "target": 34962
    },
    {
      "buffer": 0,
      "byteLength": 28976,
      "byteOffset": 84552,
      "target": 34962
    },
    {
      "buffer": 0,
      "byteLength": 14488,
      "byteOffset": 113528,
      "target": 34962
    }
  ],
  "buffers": [
    {
      "byteLength": 128016,
      "uri": "Babosa.bin"
    }
  ],
  "images": [
    {
      "uri": "Babosa0_baseColor.png"
    },
    {
      "uri": "Babosa0_occlusionRoughnessMetallic.png"
    },
    {
      "uri": "Babosa0_normal.png"
    }
  ],
  "materials": [
    {
      "alphaMode": "OPAQUE",
      "name": "Babosa0",
      "normalTexture": {
        "index": 2
      },
      "occlusionTexture": {
        "index": 1
      },
      "pbrMetallicRoughness": {
        "baseColorTexture": {
          "index": 0
        },
        "metallicRoughnessTexture": {
          "index": 1
        }
      }
    }
  ],
  "meshes": [
    {
      "name": "Babosa",
      "primitives": [
        {
          "attributes": {
            "NORMAL": 2,
            "POSITION": 1,
            "TANGENT": 3,
            "TEXCOORD_0": 4
          },
          "indices": 0,
          "material": 0,
          "mode": 4
        }
      ]
    }
  ],
  "nodes": [
    {
      "children": [
        1
      ],
      "name": "RootNode",
      "scale": [
        0.00999999977648258,
        0.00999999977648258,
        0.00999999977648258
      ]
    },
    {
      "children": [
        2
      ],
      "name": "Babosa"
    },
    {
      "mesh": 0,
      "name": "Babosa"
    }
  ],
  "samplers": [
    {
      "magFilter": 9729,
      "minFilter": 9985,
      "wrapS": 10497,
      "wrapT": 10497
    }
  ],
  "scene": 0,
  "scenes": [
    {
      "name": "Scene",
      "nodes": [
        0
      ]
    }
  ],
  "textures": [
    {
      "sampler": 0,
      "source": 0
    },
    {
      "sampler": 0,
      "source": 1
    },
    {
      "sampler": 0,
      "source": 2
    }
  ]
}